PathFileType	4	(X/Y/Z)	/Users/itak/Documents/Research/Walk-IL/dataset/trc/00081_00006.trc
DataRate	CameraRate	NumFrames	NumMarkers	Units	OrigDataRate	OrigDataStartFrame	OrigNumFrames
100.000000	100.000000	4	53	mm	100.000000	375	501
Frame#	Time	RPSI			LPSI			L3			STRN			T10			C7			CLAV			RBAK			LBAK			LSHO			LUPA			LAEL			LAOL			LWTS			LWPS			LFRA			LIFD			LHPS			LHTS			RSHO			RUPA			RAEL			RAOL			RWTS			RWPS			RFRA			RIFD			RHTS			RHPS			RBHD			LFHD			RFHD			LBHD			LHIP			RHIP			RASI			LASI			LKNE			LTHI			LANK			LTIP			LTOE			LMT1			LMT5			LHEE			RKNE			RTHI			RANK			RTIP			RTOE			RMT1			RMT5			RHEE			
		X1	Y1	Z1	X2	Y2	Z2	X3	Y3	Z3	X4	Y4	Z4	X5	Y5	Z5	X6	Y6	Z6	X7	Y7	Z7	X8	Y8	Z8	X9	Y9	Z9	X10	Y10	Z10	X11	Y11	Z11	X12	Y12	Z12	X13	Y13	Z13	X14	Y14	Z14	X15	Y15	Z15	X16	Y16	Z16	X17	Y17	Z17	X18	Y18	Z18	X19	Y19	Z19	X20	Y20	Z20	X21	Y21	Z21	X22	Y22	Z22	X23	Y23	Z23	X24	Y24	Z24	X25	Y25	Z25	X26	Y26	Z26	X27	Y27	Z27	X28	Y28	Z28	X29	Y29	Z29	X30	Y30	Z30	X31	Y31	Z31	X32	Y32	Z32	X33	Y33	Z33	X34	Y34	Z34	X35	Y35	Z35	X36	Y36	Z36	X37	Y37	Z37	X38	Y38	Z38	X39	Y39	Z39	X40	Y40	Z40	X41	Y41	Z41	X42	Y42	Z42	X43	Y43	Z43	X44	Y44	Z44	X45	Y45	Z45	X46	Y46	Z46	X47	Y47	Z47	X48	Y48	Z48	X49	Y49	Z49	X50	Y50	Z50	X51	Y51	Z51	X52	Y52	Z52	X53	Y53	Z53	

376	3.75	331.7590026855469	1003.026733398438	-45.38154983520508	173.4646148681641	996.4122924804688	-114.3395843505859	240.5059814453125	1064.692138671875	-81.84539794921875	363.2625427246094	1262.085327148438	-304.3395690917969	219.8042602539062	1193.867553710938	-76.20713806152344	251.5155792236328	1461.543090820312	-126.6091918945312	348.3265380859375	1376.539184570312	-277.4317321777344	278.5009765625	1321.7998046875	-36.16628646850586	151.7135467529297	1426.661010742188	-160.9227752685547	147.8077545166016	1434.322387695312	-285.6293640136719	76.54648590087891	1310.705688476562	-325.8185729980469	81.61257171630859	1103.970581054688	-393.546630859375	113.0624847412109	1071.797485351562	-295.9940185546875	259.3845825195312	928.807373046875	-475.6656494140625	184.9108123779297	886.3775024414062	-475.6069946289062	120.401725769043	1009.054260253906	-439.8982849121094	346.181396484375	769.13330078125	-518.8751220703125	235.0474395751953	828.6047973632812	-515.2528076171875	297.8518371582031	863.2456665039062	-515.2032470703125	431.5486145019531	1421.94921875	-87.03095245361328	473.5411071777344	1354.033569335938	-40.83098220825195	471.3069763183594	1098.840942382812	26.01776885986328	406.8290100097656	1072.795043945312	-48.33415985107422	516.911376953125	833.995361328125	-89.28335571289062	518.089111328125	827.4774780273438	-2.242757081985474	483.4049072265625	1018.038696289062	27.35437393188477	499.2856140136719	646.7507934570312	-85.49332427978516	526.384765625	732.4725952148438	-100.1001129150391	538.3240966796875	735.6663208007812	-23.87125587463379	242.3616790771484	1636.038452148438	-155.7951965332031	408.491943359375	1680.02294921875	-286.075927734375	287.5024108886719	1687.253173828125	-320.9097290039062	376.2850952148438	1621.457763671875	-127.7668838500977	131.6394348144531	936.7345581054688	-248.5453338623047	435.0155334472656	937.9719848632812	-78.74474334716797	465.39990234375	963.2322998046875	-198.9950866699219	229.3300933837891	947.5145263671875	-325.3623046875	250.0184326171875	474.9999389648438	-227.6430816650391	191.8267364501953	613.68994140625	-241.7109069824219	173.7792663574219	45.64956283569336	-49.67756271362305	199.3750915527344	244.0919189453125	-138.6515045166016	330.0137329101562	38.21593475341797	-184.5842590332031	327.1291198730469	40.76391220092773	-112.5920181274414	221.8583221435547	34.94992828369141	-148.7852325439453	189.3556060791016	56.05432891845703	41.61389923095703	525.0341796875	530.3716430664062	-280.4002990722656	505.6814575195312	785.3739624023438	-187.6102600097656	580.742431640625	42.69458770751953	-330.514892578125	546.9020385742188	409.769775390625	-295.5087585449219	595.5640258789062	114.2027053833008	-529.2056274414062	543.5646362304688	93.38386535644531	-488.013916015625	627.0436401367188	82.36974334716797	-435.8815002441406	514.1456909179688	30.48343658447266	-305.9631958007812	
377	3.76	338.3608093261719	1001.919677734375	-51.9882926940918	179.5658416748047	995.3592529296875	-119.9147415161133	246.6834259033203	1063.64404296875	-87.86347198486328	368.0765686035156	1260.945190429688	-310.9295043945312	225.5824432373047	1192.652709960938	-82.19988250732422	257.0453491210938	1460.370971679688	-132.6479339599609	353.3360900878906	1375.375	-283.84912109375	284.3552856445312	1320.550903320312	-42.43376541137695	157.1049499511719	1425.531127929688	-166.6325531005859	152.8643798828125	1433.245727539062	-291.3224487304688	81.47228240966797	1309.65771484375	-331.5105590820312	86.52188873291016	1103.083740234375	-399.6782531738281	118.1846008300781	1070.715454101562	-302.2533569335938	263.9095458984375	927.8148803710938	-482.4151611328125	189.3885345458984	885.447998046875	-482.2317504882812	125.0989227294922	1008.173156738281	-446.2562561035156	350.5216064453125	768.12060546875	-526.0172119140625	239.3609619140625	827.6868896484375	-522.03369140625	302.1996154785156	862.24853515625	-522.09619140625	437.2369384765625	1420.661987304688	-93.75460815429688	479.3274230957031	1352.756225585938	-47.69702911376953	477.122314453125	1097.68115234375	19.44801139831543	412.320556640625	1071.567260742188	-54.54142379760742	521.9557495117188	832.63525390625	-95.69766235351562	523.4774780273438	826.2049560546875	-8.651906967163086	489.1724853515625	1016.85595703125	20.84013557434082	504.1070556640625	645.4232177734375	-91.61935424804688	531.2525634765625	731.0947875976562	-106.4272384643555	543.5543823242188	734.3631591796875	-30.26638031005859	247.7761688232422	1634.724853515625	-161.5738525390625	413.3576049804688	1679.0771484375	-292.4114990234375	292.2066955566406	1686.316162109375	-326.7630004882812	381.8089904785156	1620.159423828125	-134.1089935302734	136.6066741943359	935.853759765625	-253.8461456298828	441.2735900878906	936.7052001953125	-86.21389007568359	470.8713073730469	962.0364990234375	-206.6480407714844	233.8279266357422	946.4100952148438	-331.3388671875	253.3654022216797	473.8380126953125	-231.8399810791016	195.6338653564453	612.7679443359375	-246.409423828125	174.0653381347656	46.38070678710938	-49.6965446472168	201.0685577392578	243.8892364501953	-140.6228942871094	329.9916381835938	38.2062873840332	-184.6981201171875	327.1499938964844	40.76245498657227	-112.8041534423828	221.9504089355469	35.08715057373047	-148.851806640625	189.7935180664062	57.56239318847656	41.51316833496094	528.19775390625	528.587646484375	-287.1578674316406	510.8077697753906	783.704345703125	-195.1130523681641	584.800048828125	42.05506896972656	-344.9482116699219	550.0610961914062	408.4878234863281	-303.8471374511719	597.8013916015625	116.1909103393555	-542.8574829101562	546.201904296875	94.68036651611328	-501.5651245117188	630.1487426757812	83.33003997802734	-450.1932373046875	518.4244384765625	29.3359260559082	-319.950439453125	
378	3.77	344.992431640625	1000.867492675781	-58.67848205566406	185.7472381591797	994.3722534179688	-125.5849609375	252.9022064208984	1062.602416992188	-94.02299499511719	372.9458618164062	1259.85595703125	-317.5719604492188	231.4171905517578	1191.426879882812	-88.31133270263672	262.6035766601562	1459.212280273438	-138.7055053710938	358.3833923339844	1374.256225585938	-290.3055419921875	290.2394104003906	1319.286010742188	-48.75756072998047	162.5308532714844	1424.402709960938	-172.3795776367188	157.9508972167969	1432.188842773438	-297.0470581054688	86.43367767333984	1308.611694335938	-337.2140808105469	91.45611572265625	1102.164184570312	-405.7057800292969	123.3623352050781	1069.659545898438	-308.3993225097656	268.1932983398438	926.5057373046875	-489.0271911621094	193.5780181884766	884.2991333007812	-488.6203308105469	129.6840515136719	1007.181518554688	-452.4466857910156	354.3413391113281	766.5982666015625	-532.9267578125	243.2910461425781	826.4397583007812	-528.5657958984375	306.1841735839844	860.8323974609375	-528.8175659179688	442.9543762207031	1419.394653320312	-100.4899978637695	485.13818359375	1351.49462890625	-54.57583236694336	483.0007629394531	1096.5244140625	12.80289745330811	417.8687438964844	1070.324951171875	-60.77482604980469	527.1373901367188	831.3236083984375	-102.2419357299805	528.993896484375	824.9458618164062	-15.18922996520996	495.030517578125	1015.679565429688	14.243896484375	509.1671447753906	644.1443481445312	-97.93105316162109	536.3085327148438	729.7766723632812	-112.9180679321289	548.94873046875	733.1024780273438	-36.82804870605469	253.2096405029297	1633.45751953125	-167.3655395507812	418.2301330566406	1678.163330078125	-298.7656555175781	296.9251098632812	1685.413452148438	-332.6250915527344	387.34814453125	1618.908569335938	-140.4667358398438	141.6464233398438	935.0003662109375	-259.228271484375	447.5400695800781	935.4885864257812	-93.73883819580078	476.3802185058594	960.8534545898438	-214.3637542724609	238.4020080566406	945.3297119140625	-337.4025268554688	256.8547668457031	472.6967468261719	-236.1536407470703	199.5150146484375	611.8717041015625	-251.1926116943359	174.2923889160156	47.25476455688477	-49.79482269287109	202.7805786132812	243.7660522460938	-142.6952514648438	329.9530334472656	38.20172500610352	-184.8290100097656	327.16357421875	40.77912521362305	-113.0364151000977	222.0199584960938	35.24143981933594	-148.9529266357422	190.1921539306641	59.25132751464844	41.330810546875	531.4352416992188	526.925048828125	-294.1758728027344	515.8756103515625	782.1159057617188	-202.7774505615234	587.5896606445312	41.20171356201172	-357.112548828125	553.0510864257812	407.0510559082031	-311.9950256347656	599.5083618164062	116.807258605957	-554.5121459960938	548.1532592773438	94.88902282714844	-513.2044677734375	632.3411865234375	83.37795257568359	-462.2467041015625	521.3477172851562	28.26736640930176	-331.8197326660156	
379	3.78	351.6419372558594	999.8759155273438	-65.46670532226562	191.9965362548828	993.4693603515625	-131.3650512695312	259.1647338867188	1061.571899414062	-100.3387908935547	377.875244140625	1258.836181640625	-324.2688293457031	237.3257446289062	1190.2001953125	-94.53752899169922	268.190673828125	1458.076049804688	-144.7794342041016	363.4696655273438	1373.20166015625	-296.8021850585938	296.1626892089844	1318.015014648438	-55.13347244262695	167.9973754882812	1423.281860351562	-178.1573486328125	163.0595397949219	1431.157592773438	-302.7970581054688	91.43495178222656	1307.57470703125	-342.9190979003906	96.40993499755859	1101.2177734375	-411.6221008300781	128.5757598876953	1068.635009765625	-314.4278564453125	272.2315368652344	924.895263671875	-495.4931030273438	197.4744110107422	882.9458618164062	-494.7753601074219	134.1557312011719	1006.091735839844	-458.4645080566406	357.6340026855469	764.5931396484375	-539.5971069335938	246.8400573730469	824.8823852539062	-534.8564453125	309.8109436035156	859.0184326171875	-535.3599853515625	448.7057800292969	1418.165893554688	-107.2381210327148	490.9820251464844	1350.267578125	-61.47061538696289	488.9399719238281	1095.386474609375	6.071773052215576	423.4774169921875	1069.085083007812	-67.05079650878906	532.4554443359375	830.0707397460938	-108.9169540405273	534.6328125	823.7196655273438	-21.85469436645508	500.9692687988281	1014.527038574219	7.554858684539795	514.44873046875	642.9227294921875	-104.4139099121094	541.54638671875	728.5263061523438	-119.5632476806641	554.4954223632812	731.8978271484375	-43.5440559387207	258.6629943847656	1632.256713867188	-173.1672210693359	423.1160888671875	1677.297119140625	-305.1421813964844	301.6623840332031	1684.55615234375	-338.4949035644531	392.9033508300781	1617.723754882812	-146.8368377685547	146.7688751220703	934.1884765625	-264.7036743164062	453.8094482421875	934.3289184570312	-101.3277130126953	481.9303588867188	959.7001342773438	-222.1454772949219	243.0543518066406	944.2860107421875	-343.5628967285156	260.4718322753906	471.5785522460938	-240.611328125	203.4653625488281	611.0072631835938	-256.0749206542969	174.4527282714844	48.28383255004883	-49.99481964111328	204.5094299316406	243.7309722900391	-144.8900604248047	329.9120178222656	38.20110702514648	-184.9696960449219	327.1676940917969	40.82370376586914	-113.2870712280273	222.0561218261719	35.40798568725586	-149.0999908447266	190.5344543457031	61.13603210449219	41.05365371704102	534.7267456054688	525.3690185546875	-301.4715576171875	520.8812866210938	780.6210327148438	-210.6086730957031	589.3131103515625	40.13125610351562	-367.0450744628906	555.8900756835938	405.4617309570312	-319.9905700683594	600.6783447265625	115.9302291870117	-564.2963256835938	549.4518432617188	93.90203857421875	-522.9906005859375	633.710205078125	82.44730377197266	-472.1652221679688	523.1385498046875	27.28157424926758	-341.5333251953125	
